# xmcd
#
# Track frame offsets:
# 150
# 20551
# 36724
# 58073
# 82246
# 108955
# 130748
# 152461
# 175254
# 195775
#
# Disc length: 2894 seconds
#
# Revision: 0
# Processed by: cddbd v1.5.1PL2 Copyright (c) Steve Scherf et al.
# Submitted via: Audion 3.0.2 (http://www.panic.com/audion/)
#
DISCID=7f0b4c0a
DTITLE=Steven Katz - el viajero
DYEAR=1900
DGENRE=
TTITLE0=Mediterraneo
TTITLE1=South of the Border
TTITLE2=The Girl is Very Bad
TTITLE3=El Viajero
TTITLE4=The Red Door
TTITLE5=Surco
TTITLE6=The Delicate Flower
TTITLE7=Ropa Vieja
TTITLE8=Poquita Frescura
TTITLE9=Crucian Serenade
EXTD=
EXTT0=
EXTT1=
EXTT2=
EXTT3=
EXTT4=
EXTT5=
EXTT6=
EXTT7=
EXTT8=
EXTT9=
PLAYORDER=
